<svg xmlns="http://www.w3.org/2000/svg" width="100" height="100" viewBox="10 8 77 77">
  <!-- Background: llm_chat — 오른쪽으로 5px, 위로 10px 이동 -->
  <g opacity="0.6" transform="translate(15, -15) scale(0.9)">
    <path d="M25 35 H75 Q80 35 80 40 V65 Q80 70 75 70 H45 L35 80 V70 H25 Q20 70 20 65 V40 Q20 35 25 35 Z" style="fill:none;stroke:rgb(79, 70, 229);stroke-width:1.8px;stroke-linecap:round;stroke-linejoin:round;" />
    <line x1="32" y1="44" x2="68" y2="44" style="fill:none;stroke:rgb(79, 70, 229);stroke-width:1.8px;stroke-linecap:round;stroke-linejoin:round;" />
    <line x1="32" y1="52" x2="68" y2="52" style="fill:none;stroke:rgb(79, 70, 229);stroke-width:1.8px;stroke-linecap:round;stroke-linejoin:round;" />
    <line x1="32" y1="60" x2="55" y2="60" style="fill:none;stroke:rgb(79, 70, 229);stroke-width:1.8px;stroke-linecap:round;stroke-linejoin:round;" />
  </g>

  <!-- Foreground: ai_agent — 왼쪽으로 5px 이동 (translate x: -5 → -10) -->
  <g transform="translate(-10, 5)">
    <rect x="28.0" y="26.25" width="44" height="34" rx="5" style="fill:none;stroke:rgb(79, 70, 229);stroke-width:1.8px;stroke-linecap:round;stroke-linejoin:round;" />
    <line x1="50.0" y1="26.25" x2="50.0" y2="19.25" style="fill:none;stroke:rgb(79, 70, 229);stroke-width:1.8px;stroke-linecap:round;stroke-linejoin:round;" />
    <circle cx="50.0" cy="17.25" r="2.5" style="fill:none;stroke:rgb(79, 70, 229);stroke-width:1.8px;stroke-linecap:round;stroke-linejoin:round;" />
    <circle cx="40.0" cy="42.25" r="4" style="fill:none;stroke:rgb(79, 70, 229);stroke-width:1.8px;stroke-linecap:round;stroke-linejoin:round;" />
    <circle cx="60.0" cy="42.25" r="4" style="fill:none;stroke:rgb(79, 70, 229);stroke-width:1.8px;stroke-linecap:round;stroke-linejoin:round;" />
    <circle cx="40.0" cy="42.25" r="1.5" style="fill:none;stroke:rgb(79, 70, 229);stroke-width:1.8px;stroke-linecap:round;stroke-linejoin:round;" />
    <circle cx="60.0" cy="42.25" r="1.5" style="fill:none;stroke:rgb(79, 70, 229);stroke-width:1.8px;stroke-linecap:round;stroke-linejoin:round;" />
    <line x1="41.0" y1="52.25" x2="59.0" y2="52.25" style="fill:none;stroke:rgb(79, 70, 229);stroke-width:1.8px;stroke-linecap:round;stroke-linejoin:round;" />
    <rect x="32.0" y="63.25" width="36" height="22" rx="4" style="fill:none;stroke:rgb(79, 70, 229);stroke-width:1.8px;stroke-linecap:round;stroke-linejoin:round;" />
    <line x1="42.0" y1="68.25" x2="42.0" y2="80.25" style="fill:none;stroke:rgb(79, 70, 229);stroke-width:1.8px;stroke-linecap:round;stroke-linejoin:round;" />
    <line x1="50.0" y1="68.25" x2="50.0" y2="80.25" style="fill:none;stroke:rgb(79, 70, 229);stroke-width:1.8px;stroke-linecap:round;stroke-linejoin:round;" />
    <line x1="58.0" y1="68.25" x2="58.0" y2="80.25" style="fill:none;stroke:rgb(79, 70, 229);stroke-width:1.8px;stroke-linecap:round;stroke-linejoin:round;" />
    <line x1="45.0" y1="60.25" x2="45.0" y2="63.25" style="fill:none;stroke:rgb(79, 70, 229);stroke-width:1.8px;stroke-linecap:round;stroke-linejoin:round;" />
    <line x1="55.0" y1="60.25" x2="55.0" y2="63.25" style="fill:none;stroke:rgb(79, 70, 229);stroke-width:1.8px;stroke-linecap:round;stroke-linejoin:round;" />
  </g>
</svg>
