<svg xmlns="http://www.w3.org/2000/svg" width="100" height="100" viewBox="0 0 100 100">
  <defs>
    
  </defs>
  
  <path d="&#10;    M70 75&#10;    C70 75, 55 72, 50 62&#10;    C45 52, 50 44, 57 42&#10;    C60 41, 63 42, 65 45&#10;    C64 40, 68 36, 73 37&#10;    C79 38, 83 44, 81 50&#10;    C86 48, 91 52, 90 58&#10;    C89 64, 83 68, 78 68&#10;    C80 72, 76 76, 70 75Z&#10;  " style="fill:none;stroke:rgb(79, 70, 229);stroke-width:1.8px;stroke-linecap:round;stroke-linejoin:round;" />
  <line x1="45.0" y1="46.0" x2="52.0" y2="53.0" style="fill:none;stroke:rgb(79, 70, 229);stroke-width:1.8px;stroke-linecap:round;stroke-linejoin:round;" />
  <line x1="52.0" y1="53.0" x2="60.0" y2="46.0" style="fill:none;stroke:rgb(79, 70, 229);stroke-width:1.8px;stroke-linecap:round;stroke-linejoin:round;" />
  <line x1="52.0" y1="53.0" x2="52.0" y2="61.0" style="fill:none;stroke:rgb(79, 70, 229);stroke-width:1.8px;stroke-linecap:round;stroke-linejoin:round;" />
  <circle cx="45.0" cy="46.0" r="2" style="fill:none;stroke:rgb(79, 70, 229);stroke-width:1.8px;stroke-linecap:round;stroke-linejoin:round;" />
  <circle cx="60.0" cy="46.0" r="2" style="fill:none;stroke:rgb(79, 70, 229);stroke-width:1.8px;stroke-linecap:round;stroke-linejoin:round;" />
  <circle cx="52.0" cy="53.0" r="2" style="fill:none;stroke:rgb(79, 70, 229);stroke-width:1.8px;stroke-linecap:round;stroke-linejoin:round;" />
  <circle cx="52.0" cy="61.0" r="1.5" style="fill:none;stroke:rgb(79, 70, 229);stroke-width:1.8px;stroke-linecap:round;stroke-linejoin:round;" />
  <line x1="45.0" y1="66.0" x2="45.0" y2="73.0" style="fill:none;stroke:rgb(79, 70, 229);stroke-width:1.8px;stroke-linecap:round;stroke-linejoin:round;" />
  <line x1="59.0" y1="66.0" x2="59.0" y2="73.0" style="fill:none;stroke:rgb(79, 70, 229);stroke-width:1.8px;stroke-linecap:round;stroke-linejoin:round;" />
  <line x1="45.0" y1="73.0" x2="59.0" y2="73.0" style="fill:none;stroke:rgb(79, 70, 229);stroke-width:1.8px;stroke-linecap:round;stroke-linejoin:round;" />
</svg>