<svg xmlns="http://www.w3.org/2000/svg" width="100" height="100" viewBox="0 0 100 100">
  <defs>
    
  </defs>
  
  <rect x="25.0" y="25.0" width="50" height="50" rx="4" style="fill:none;stroke:rgb(79, 70, 229);stroke-width:1.8px;stroke-linecap:round;stroke-linejoin:round;" />
  <rect x="33.0" y="33.0" width="34" height="34" rx="2" style="fill:none;stroke:rgb(79, 70, 229);stroke-width:1.8px;stroke-linecap:round;stroke-linejoin:round;" />
  <line x1="43.0" y1="33.0" x2="43.0" y2="67.0" opacity="0.5" style="fill:none;stroke:rgb(79, 70, 229);stroke-width:1.8px;stroke-linecap:round;stroke-linejoin:round;" />
  <line x1="53.0" y1="33.0" x2="53.0" y2="67.0" opacity="0.5" style="fill:none;stroke:rgb(79, 70, 229);stroke-width:1.8px;stroke-linecap:round;stroke-linejoin:round;" />
  <line x1="63.0" y1="33.0" x2="63.0" y2="67.0" opacity="0.5" style="fill:none;stroke:rgb(79, 70, 229);stroke-width:1.8px;stroke-linecap:round;stroke-linejoin:round;" />
  <line x1="33.0" y1="43.0" x2="67.0" y2="43.0" opacity="0.5" style="fill:none;stroke:rgb(79, 70, 229);stroke-width:1.8px;stroke-linecap:round;stroke-linejoin:round;" />
  <line x1="33.0" y1="53.0" x2="67.0" y2="53.0" opacity="0.5" style="fill:none;stroke:rgb(79, 70, 229);stroke-width:1.8px;stroke-linecap:round;stroke-linejoin:round;" />
  <line x1="33.0" y1="63.0" x2="67.0" y2="63.0" opacity="0.5" style="fill:none;stroke:rgb(79, 70, 229);stroke-width:1.8px;stroke-linecap:round;stroke-linejoin:round;" />
  <line x1="25.0" y1="33.0" x2="19.0" y2="33.0" style="fill:none;stroke:rgb(79, 70, 229);stroke-width:1.8px;stroke-linecap:round;stroke-linejoin:round;" />
  <line x1="25.0" y1="42.0" x2="19.0" y2="42.0" style="fill:none;stroke:rgb(79, 70, 229);stroke-width:1.8px;stroke-linecap:round;stroke-linejoin:round;" />
  <line x1="25.0" y1="51.0" x2="19.0" y2="51.0" style="fill:none;stroke:rgb(79, 70, 229);stroke-width:1.8px;stroke-linecap:round;stroke-linejoin:round;" />
  <line x1="25.0" y1="60.0" x2="19.0" y2="60.0" style="fill:none;stroke:rgb(79, 70, 229);stroke-width:1.8px;stroke-linecap:round;stroke-linejoin:round;" />
  <line x1="25.0" y1="67.0" x2="19.0" y2="67.0" style="fill:none;stroke:rgb(79, 70, 229);stroke-width:1.8px;stroke-linecap:round;stroke-linejoin:round;" />
  <line x1="75.0" y1="33.0" x2="81.0" y2="33.0" style="fill:none;stroke:rgb(79, 70, 229);stroke-width:1.8px;stroke-linecap:round;stroke-linejoin:round;" />
  <line x1="75.0" y1="42.0" x2="81.0" y2="42.0" style="fill:none;stroke:rgb(79, 70, 229);stroke-width:1.8px;stroke-linecap:round;stroke-linejoin:round;" />
  <line x1="75.0" y1="51.0" x2="81.0" y2="51.0" style="fill:none;stroke:rgb(79, 70, 229);stroke-width:1.8px;stroke-linecap:round;stroke-linejoin:round;" />
  <line x1="75.0" y1="60.0" x2="81.0" y2="60.0" style="fill:none;stroke:rgb(79, 70, 229);stroke-width:1.8px;stroke-linecap:round;stroke-linejoin:round;" />
  <line x1="75.0" y1="67.0" x2="81.0" y2="67.0" style="fill:none;stroke:rgb(79, 70, 229);stroke-width:1.8px;stroke-linecap:round;stroke-linejoin:round;" />
  <line x1="36.0" y1="25.0" x2="36.0" y2="19.0" style="fill:none;stroke:rgb(79, 70, 229);stroke-width:1.8px;stroke-linecap:round;stroke-linejoin:round;" />
  <line x1="48.0" y1="25.0" x2="48.0" y2="19.0" style="fill:none;stroke:rgb(79, 70, 229);stroke-width:1.8px;stroke-linecap:round;stroke-linejoin:round;" />
  <line x1="60.0" y1="25.0" x2="60.0" y2="19.0" style="fill:none;stroke:rgb(79, 70, 229);stroke-width:1.8px;stroke-linecap:round;stroke-linejoin:round;" />
  <line x1="36.0" y1="75.0" x2="36.0" y2="81.0" style="fill:none;stroke:rgb(79, 70, 229);stroke-width:1.8px;stroke-linecap:round;stroke-linejoin:round;" />
  <line x1="48.0" y1="75.0" x2="48.0" y2="81.0" style="fill:none;stroke:rgb(79, 70, 229);stroke-width:1.8px;stroke-linecap:round;stroke-linejoin:round;" />
  <line x1="60.0" y1="75.0" x2="60.0" y2="81.0" style="fill:none;stroke:rgb(79, 70, 229);stroke-width:1.8px;stroke-linecap:round;stroke-linejoin:round;" />
</svg>