<svg xmlns="http://www.w3.org/2000/svg" viewBox="0 0 100 100" width="100" height="100">
  <!-- Blue snake body (top-left) -->
  <path d="M 50 8 C 33 8, 28 15, 28 23 L 28 31 L 50 31 L 50 35 L 20 35 C 12 35, 7 40, 7 50 C 7 60, 12 66, 20 66 L 27 66 L 27 57 C 27 49, 32 44, 40 44 L 60 44 C 67 44, 72 39, 72 32 L 72 23 C 72 15, 67 8, 50 8Z" style="fill:none;stroke:rgb(79, 70, 229);stroke-width:2;stroke-linecap:round;stroke-linejoin:round;" />

  <!-- Blue snake eye -->
  <circle cx="39" cy="19" r="3" style="fill:none;stroke:rgb(79, 70, 229);stroke-width:1.4;stroke-linecap:round;stroke-linejoin:round;" />
  <circle cx="39" cy="19" r="1.2" style="fill:rgb(79, 70, 229);" />

  <!-- notch on blue body -->
  <line x1="28" y1="31" x2="72" y2="31" style="fill:none;stroke:rgb(79, 70, 229);stroke-width:1.4;stroke-linecap:round;stroke-linejoin:round;" />

  <!-- Yellow snake body (bottom-right) -->
  <path d="M 50 92 C 67 92, 72 85, 72 77 L 72 69 L 50 69 L 50 65 L 80 65 C 88 65, 93 60, 93 50 C 93 40, 88 34, 80 34 L 73 34 L 73 43 C 73 51, 68 56, 60 56 L 40 56 C 33 56, 28 61, 28 68 L 28 77 C 28 85, 33 92, 50 92Z" style="fill:none;stroke:rgb(79, 70, 229);stroke-width:2;stroke-linecap:round;stroke-linejoin:round;" />

  <!-- Yellow snake eye -->
  <circle cx="61" cy="81" r="3" style="fill:none;stroke:rgb(79, 70, 229);stroke-width:1.4;stroke-linecap:round;stroke-linejoin:round;" />
  <circle cx="61" cy="81" r="1.2" style="fill:rgb(79, 70, 229);" />

  <!-- notch on yellow body -->
  <line x1="28" y1="69" x2="72" y2="69" style="fill:none;stroke:rgb(79, 70, 229);stroke-width:1.4;stroke-linecap:round;stroke-linejoin:round;" />
</svg>
