<svg xmlns="http://www.w3.org/2000/svg" width="100" height="100" viewBox="0 0 100 100">
  <!-- Back Document -->
  <path d="M35 20 H65 Q68 20 68 23 V55 Q68 58 65 58 H35 Q32 58 32 55 V23 Q32 20 35 20 Z" style="fill:none;stroke:rgb(79, 70, 229);stroke-width:1.8px;stroke-linecap:round;stroke-linejoin:round;opacity:0.4;" />
  
  <!-- Front Document -->
  <path d="M25 30 H55 Q58 30 58 33 V65 Q58 68 55 68 H25 Q22 68 22 65 V33 Q22 30 25 30 Z" style="fill:none;stroke:rgb(79, 70, 229);stroke-width:1.8px;stroke-linecap:round;stroke-linejoin:round;" />
  <line x1="30" y1="40" x2="50" y2="40" style="fill:none;stroke:rgb(79, 70, 229);stroke-width:1.2px;stroke-linecap:round;stroke-linejoin:round;" />
  <line x1="30" y1="48" x2="50" y2="48" style="fill:none;stroke:rgb(79, 70, 229);stroke-width:1.2px;stroke-linecap:round;stroke-linejoin:round;" />
  <line x1="30" y1="56" x2="42" y2="56" style="fill:none;stroke:rgb(79, 70, 229);stroke-width:1.2px;stroke-linecap:round;stroke-linejoin:round;" />

  <!-- Magnifying Glass (Search) -->
  <circle cx="65" cy="65" r="14" style="fill:white;stroke:rgb(79, 70, 229);stroke-width:2px;stroke-linecap:round;stroke-linejoin:round;" />
  <line x1="75" y1="75" x2="85" y2="85" style="fill:none;stroke:rgb(79, 70, 229);stroke-width:2.5px;stroke-linecap:round;stroke-linejoin:round;" />
</svg>